<svg width="43" height="42" viewBox="0 0 43 42" fill="none" xmlns="http://www.w3.org/2000/svg">
<path d="M42.4 21C42.4 32.2534 33.0561 41.4 21.5 41.4C9.94386 41.4 0.6 32.2534 0.6 21C0.6 9.74662 9.94386 0.6 21.5 0.6C33.0561 0.6 42.4 9.74662 42.4 21Z" stroke="#2F2F2F" stroke-width="1.2"/>
<path d="M21.5 25C23.9852 25 26 22.9852 26 20.5C26 18.0147 23.9852 16 21.5 16C19.0147 16 17 18.0147 17 20.5C17 22.9852 19.0147 25 21.5 25Z" stroke="#2F2F2F" stroke-width="1.2" stroke-linecap="round" stroke-linejoin="round"/>
<path d="M11.375 25V16C11.375 12.8934 13.8934 10.375 17 10.375H26C29.1066 10.375 31.625 12.8934 31.625 16V25C31.625 28.1066 29.1066 30.625 26 30.625H17C13.8934 30.625 11.375 28.1066 11.375 25Z" stroke="#2F2F2F" stroke-width="1.2"/>
<path d="M27.6875 14.3235L27.6988 14.311" stroke="#2F2F2F" stroke-width="1.2" stroke-linecap="round" stroke-linejoin="round"/>
</svg>
