<svg width="163" height="307" viewBox="0 0 163 307" fill="none" xmlns="http://www.w3.org/2000/svg">
<path d="M229.5 113.5C229.5 175.902 178.243 226.5 115 226.5C51.7572 226.5 0.5 175.902 0.5 113.5C0.5 51.098 51.7572 0.5 115 0.5C178.243 0.5 229.5 51.098 229.5 113.5Z" stroke="#88BADB"/>
<path d="M238.5 123.5C238.5 185.902 187.243 236.5 124 236.5C60.7572 236.5 9.5 185.902 9.5 123.5C9.5 61.098 60.7572 10.5 124 10.5C187.243 10.5 238.5 61.098 238.5 123.5Z" stroke="#88BADB"/>
<path d="M247.5 133.5C247.5 195.902 196.243 246.5 133 246.5C69.7572 246.5 18.5 195.902 18.5 133.5C18.5 71.098 69.7572 20.5 133 20.5C196.243 20.5 247.5 71.098 247.5 133.5Z" stroke="#88BADB"/>
<path d="M256.5 143.5C256.5 205.902 205.243 256.5 142 256.5C78.7572 256.5 27.5 205.902 27.5 143.5C27.5 81.098 78.7572 30.5 142 30.5C205.243 30.5 256.5 81.098 256.5 143.5Z" stroke="#88BADB"/>
<path d="M265.5 153.5C265.5 215.902 214.243 266.5 151 266.5C87.7572 266.5 36.5 215.902 36.5 153.5C36.5 91.098 87.7572 40.5 151 40.5C214.243 40.5 265.5 91.098 265.5 153.5Z" stroke="#88BADB"/>
<path d="M274.5 163.5C274.5 225.902 223.243 276.5 160 276.5C96.7572 276.5 45.5 225.902 45.5 163.5C45.5 101.098 96.7572 50.5 160 50.5C223.243 50.5 274.5 101.098 274.5 163.5Z" stroke="#88BADB"/>
<path d="M280.5 173.5C280.5 235.902 229.243 286.5 166 286.5C102.757 286.5 51.5 235.902 51.5 173.5C51.5 111.098 102.757 60.5 166 60.5C229.243 60.5 280.5 111.098 280.5 173.5Z" stroke="#88BADB"/>
<path d="M289.5 183.5C289.5 245.902 238.243 296.5 175 296.5C111.757 296.5 60.5 245.902 60.5 183.5C60.5 121.098 111.757 70.5 175 70.5C238.243 70.5 289.5 121.098 289.5 183.5Z" stroke="#88BADB"/>
<path d="M298.5 193.5C298.5 255.902 247.243 306.5 184 306.5C120.757 306.5 69.5 255.902 69.5 193.5C69.5 131.098 120.757 80.5 184 80.5C247.243 80.5 298.5 131.098 298.5 193.5Z" stroke="#88BADB"/>
</svg>
