<svg width="87" height="307" viewBox="0 0 87 307" fill="none" xmlns="http://www.w3.org/2000/svg">
<path d="M14.5 113.5C14.5 175.902 -36.7572 226.5 -100 226.5C-163.243 226.5 -214.5 175.902 -214.5 113.5C-214.5 51.098 -163.243 0.5 -100 0.5C-36.7572 0.5 14.5 51.098 14.5 113.5Z" stroke="#88BADB"/>
<path d="M23.5 123.5C23.5 185.902 -27.7572 236.5 -91 236.5C-154.243 236.5 -205.5 185.902 -205.5 123.5C-205.5 61.098 -154.243 10.5 -91 10.5C-27.7572 10.5 23.5 61.098 23.5 123.5Z" stroke="#88BADB"/>
<path d="M32.5 133.5C32.5 195.902 -18.7572 246.5 -82 246.5C-145.243 246.5 -196.5 195.902 -196.5 133.5C-196.5 71.098 -145.243 20.5 -82 20.5C-18.7572 20.5 32.5 71.098 32.5 133.5Z" stroke="#88BADB"/>
<path d="M41.5 143.5C41.5 205.902 -9.75719 256.5 -73 256.5C-136.243 256.5 -187.5 205.902 -187.5 143.5C-187.5 81.098 -136.243 30.5 -73 30.5C-9.75719 30.5 41.5 81.098 41.5 143.5Z" stroke="#88BADB"/>
<path d="M50.5 153.5C50.5 215.902 -0.757187 266.5 -64 266.5C-127.243 266.5 -178.5 215.902 -178.5 153.5C-178.5 91.098 -127.243 40.5 -64 40.5C-0.757187 40.5 50.5 91.098 50.5 153.5Z" stroke="#88BADB"/>
<path d="M59.5 163.5C59.5 225.902 8.24281 276.5 -55 276.5C-118.243 276.5 -169.5 225.902 -169.5 163.5C-169.5 101.098 -118.243 50.5 -55 50.5C8.24281 50.5 59.5 101.098 59.5 163.5Z" stroke="#88BADB"/>
<path d="M68.5 173.5C68.5 235.902 17.2428 286.5 -46 286.5C-109.243 286.5 -160.5 235.902 -160.5 173.5C-160.5 111.098 -109.243 60.5 -46 60.5C17.2428 60.5 68.5 111.098 68.5 173.5Z" stroke="#88BADB"/>
<path d="M77.5 183.5C77.5 245.902 26.2428 296.5 -37 296.5C-100.243 296.5 -151.5 245.902 -151.5 183.5C-151.5 121.098 -100.243 70.5 -37 70.5C26.2428 70.5 77.5 121.098 77.5 183.5Z" stroke="#88BADB"/>
<path d="M86.5 193.5C86.5 255.902 35.2428 306.5 -28 306.5C-91.2428 306.5 -142.5 255.902 -142.5 193.5C-142.5 131.098 -91.2428 80.5 -28 80.5C35.2428 80.5 86.5 131.098 86.5 193.5Z" stroke="#88BADB"/>
</svg>
